name rise45.9887peak57.8056fall74.9286.mot
datacolumns 19
datarows 33
range 3.57666000000000 3.63000000000000
endheader
time	ground_force1_vx	ground_force1_vy	ground_force1_vz	ground_force1_px	ground_force1_py	ground_force1_pz	ground_force2_vx	ground_force2_vy	ground_force2_vz	ground_force2_px	ground_force2_py	ground_force2_pz	ground_torque1_x	ground_torque1_y	ground_torque1_z	ground_torque2_x	ground_torque2_y	ground_torque2_z	
3.57666000000000	14.80658300000000	697.12836200000004	34.42102100000000	0.24550700000000	0.00000000000000	0.09092600000000	0.00000000000000	0.00000000000000	0.00000000000000	0.00000000000000	0.00000000000000	0.00000000000000	0.00000000000000	14.78563600000000	0.00000000000000	0.00000000000000	0.00000000000000	0.00000000000000	
3.57832400000000	14.50143500000000	697.95099300000004	34.41502800000000	0.24524100000000	0.00000000000000	0.09085400000000	0.00000000000000	0.00000000000000	0.00000000000000	0.00000000000000	0.00000000000000	0.00000000000000	0.00000000000000	14.84964800000000	0.00000000000000	0.00000000000000	0.00000000000000	0.00000000000000	
3.57998800000000	14.18443400000000	698.80106000000001	34.40983500000000	0.24495500000000	0.00000000000000	0.09078400000000	0.00000000000000	0.00000000000000	0.00000000000000	0.00000000000000	0.00000000000000	0.00000000000000	0.00000000000000	14.91617900000000	0.00000000000000	0.00000000000000	0.00000000000000	0.00000000000000	
3.58165400000000	13.85510500000000	699.67706799999996	34.40511200000000	0.24464400000000	0.00000000000000	0.09071300000000	0.00000000000000	0.00000000000000	0.00000000000000	0.00000000000000	0.00000000000000	0.00000000000000	0.00000000000000	14.98501400000000	0.00000000000000	0.00000000000000	0.00000000000000	0.00000000000000	
3.58332000000000	13.51302100000000	700.57762400000001	34.40054400000000	0.24430600000000	0.00000000000000	0.09064400000000	0.00000000000000	0.00000000000000	0.00000000000000	0.00000000000000	0.00000000000000	0.00000000000000	0.00000000000000	15.05594000000000	0.00000000000000	0.00000000000000	0.00000000000000	0.00000000000000	
3.58498900000000	13.15780600000000	701.50143600000001	34.39583000000000	0.24393700000000	0.00000000000000	0.09057500000000	0.00000000000000	0.00000000000000	0.00000000000000	0.00000000000000	0.00000000000000	0.00000000000000	0.00000000000000	15.12875100000000	0.00000000000000	0.00000000000000	0.00000000000000	0.00000000000000	
3.58665300000000	12.78914100000000	702.44731700000000	34.39068900000000	0.24353600000000	0.00000000000000	0.09050800000000	0.00000000000000	0.00000000000000	0.00000000000000	0.00000000000000	0.00000000000000	0.00000000000000	0.00000000000000	15.20325000000000	0.00000000000000	0.00000000000000	0.00000000000000	0.00000000000000	
3.58831900000000	12.40675900000000	703.41418699999997	34.38486000000000	0.24310000000000	0.00000000000000	0.09044100000000	0.00000000000000	0.00000000000000	0.00000000000000	0.00000000000000	0.00000000000000	0.00000000000000	0.00000000000000	15.27924500000000	0.00000000000000	0.00000000000000	0.00000000000000	0.00000000000000	
3.58999100000000	12.01045100000000	704.40107000000000	34.37810100000000	0.24262800000000	0.00000000000000	0.09037500000000	0.00000000000000	0.00000000000000	0.00000000000000	0.00000000000000	0.00000000000000	0.00000000000000	0.00000000000000	15.35655700000000	0.00000000000000	0.00000000000000	0.00000000000000	0.00000000000000	
3.59165100000000	11.60006200000000	705.40709700000002	34.37019500000000	0.24211600000000	0.00000000000000	0.09031100000000	0.00000000000000	0.00000000000000	0.00000000000000	0.00000000000000	0.00000000000000	0.00000000000000	0.00000000000000	15.43501300000000	0.00000000000000	0.00000000000000	0.00000000000000	0.00000000000000	
3.59332000000000	11.17549700000000	706.43150300000002	34.36094500000000	0.24156400000000	0.00000000000000	0.09024800000000	0.00000000000000	0.00000000000000	0.00000000000000	0.00000000000000	0.00000000000000	0.00000000000000	0.00000000000000	15.51445300000000	0.00000000000000	0.00000000000000	0.00000000000000	0.00000000000000	
3.59498600000000	10.73671700000000	707.47362699999996	34.35018300000000	0.24097000000000	0.00000000000000	0.09018700000000	0.00000000000000	0.00000000000000	0.00000000000000	0.00000000000000	0.00000000000000	0.00000000000000	0.00000000000000	15.59472700000000	0.00000000000000	0.00000000000000	0.00000000000000	0.00000000000000	
3.59665600000000	10.28374200000000	708.53290900000002	34.33776200000000	0.24033400000000	0.00000000000000	0.09012600000000	0.00000000000000	0.00000000000000	0.00000000000000	0.00000000000000	0.00000000000000	0.00000000000000	0.00000000000000	15.67569500000000	0.00000000000000	0.00000000000000	0.00000000000000	0.00000000000000	
3.59831800000000	9.81664800000000	709.60888699999998	34.32356600000000	0.23965500000000	0.00000000000000	0.09006800000000	0.00000000000000	0.00000000000000	0.00000000000000	0.00000000000000	0.00000000000000	0.00000000000000	0.00000000000000	15.75723100000000	0.00000000000000	0.00000000000000	0.00000000000000	0.00000000000000	
3.59998600000000	9.33556800000000	710.70119399999999	34.30750400000000	0.23893100000000	0.00000000000000	0.09001000000000	0.00000000000000	0.00000000000000	0.00000000000000	0.00000000000000	0.00000000000000	0.00000000000000	0.00000000000000	15.83922000000000	0.00000000000000	0.00000000000000	0.00000000000000	0.00000000000000	
3.60165500000000	8.84069100000000	711.80955500000005	34.28951300000000	0.23816400000000	0.00000000000000	0.08995500000000	0.00000000000000	0.00000000000000	0.00000000000000	0.00000000000000	0.00000000000000	0.00000000000000	0.00000000000000	15.92155900000000	0.00000000000000	0.00000000000000	0.00000000000000	0.00000000000000	
3.60332100000000	8.33226100000000	712.93378399999995	34.26956300000000	0.23735300000000	0.00000000000000	0.08990000000000	0.00000000000000	0.00000000000000	0.00000000000000	0.00000000000000	0.00000000000000	0.00000000000000	0.00000000000000	16.00415700000000	0.00000000000000	0.00000000000000	0.00000000000000	0.00000000000000	
3.60498900000000	7.81057300000000	714.07377699999995	34.24764800000000	0.23649800000000	0.00000000000000	0.08984800000000	0.00000000000000	0.00000000000000	0.00000000000000	0.00000000000000	0.00000000000000	0.00000000000000	0.00000000000000	16.08693800000000	0.00000000000000	0.00000000000000	0.00000000000000	0.00000000000000	
3.60665700000000	7.27597700000000	715.22950900000001	34.22379700000000	0.23560100000000	0.00000000000000	0.08979700000000	0.00000000000000	0.00000000000000	0.00000000000000	0.00000000000000	0.00000000000000	0.00000000000000	0.00000000000000	16.16983400000000	0.00000000000000	0.00000000000000	0.00000000000000	0.00000000000000	
3.60832300000000	6.72887000000000	716.40102700000000	34.19806700000000	0.23466200000000	0.00000000000000	0.08974700000000	0.00000000000000	0.00000000000000	0.00000000000000	0.00000000000000	0.00000000000000	0.00000000000000	0.00000000000000	16.25279300000000	0.00000000000000	0.00000000000000	0.00000000000000	0.00000000000000	
3.60998900000000	6.16969800000000	717.58844699999997	34.17054600000000	0.23368200000000	0.00000000000000	0.08969800000000	0.00000000000000	0.00000000000000	0.00000000000000	0.00000000000000	0.00000000000000	0.00000000000000	0.00000000000000	16.33577300000000	0.00000000000000	0.00000000000000	0.00000000000000	0.00000000000000	
3.61165600000000	5.59895200000000	718.79194700000005	34.14135300000000	0.23266300000000	0.00000000000000	0.08965200000000	0.00000000000000	0.00000000000000	0.00000000000000	0.00000000000000	0.00000000000000	0.00000000000000	0.00000000000000	16.41874400000000	0.00000000000000	0.00000000000000	0.00000000000000	0.00000000000000	
3.61332100000000	5.01716600000000	720.01175899999998	34.11063700000000	0.23160700000000	0.00000000000000	0.08960600000000	0.00000000000000	0.00000000000000	0.00000000000000	0.00000000000000	0.00000000000000	0.00000000000000	0.00000000000000	16.50168500000000	0.00000000000000	0.00000000000000	0.00000000000000	0.00000000000000	
3.61498400000000	4.42491400000000	721.24816499999997	34.07858000000000	0.23051400000000	0.00000000000000	0.08956200000000	0.00000000000000	0.00000000000000	0.00000000000000	0.00000000000000	0.00000000000000	0.00000000000000	0.00000000000000	16.58458900000000	0.00000000000000	0.00000000000000	0.00000000000000	0.00000000000000	
3.61665400000000	3.82280500000000	722.50149199999998	34.04539100000000	0.22938800000000	0.00000000000000	0.08951900000000	0.00000000000000	0.00000000000000	0.00000000000000	0.00000000000000	0.00000000000000	0.00000000000000	0.00000000000000	16.66745700000000	0.00000000000000	0.00000000000000	0.00000000000000	0.00000000000000	
3.61832100000000	3.21148400000000	723.77209900000003	34.01131200000000	0.22823100000000	0.00000000000000	0.08947700000000	0.00000000000000	0.00000000000000	0.00000000000000	0.00000000000000	0.00000000000000	0.00000000000000	0.00000000000000	16.75029900000000	0.00000000000000	0.00000000000000	0.00000000000000	0.00000000000000	
3.61998900000000	2.59162600000000	725.06037900000001	33.97661200000000	0.22704400000000	0.00000000000000	0.08943600000000	0.00000000000000	0.00000000000000	0.00000000000000	0.00000000000000	0.00000000000000	0.00000000000000	0.00000000000000	16.83313300000000	0.00000000000000	0.00000000000000	0.00000000000000	0.00000000000000	
3.62165500000000	1.96393300000000	726.36674400000004	33.94159000000000	0.22583100000000	0.00000000000000	0.08939700000000	0.00000000000000	0.00000000000000	0.00000000000000	0.00000000000000	0.00000000000000	0.00000000000000	0.00000000000000	16.91598700000000	0.00000000000000	0.00000000000000	0.00000000000000	0.00000000000000	
3.62333400000000	1.32913100000000	727.69162500000004	33.90657200000000	0.22459400000000	0.00000000000000	0.08935800000000	0.00000000000000	0.00000000000000	0.00000000000000	0.00000000000000	0.00000000000000	0.00000000000000	0.00000000000000	16.99889500000000	0.00000000000000	0.00000000000000	0.00000000000000	0.00000000000000	
3.62498700000000	0.68796500000000	729.03545899999995	33.87191100000000	0.22333700000000	0.00000000000000	0.08932000000000	0.00000000000000	0.00000000000000	0.00000000000000	0.00000000000000	0.00000000000000	0.00000000000000	0.00000000000000	17.08189500000000	0.00000000000000	0.00000000000000	0.00000000000000	0.00000000000000	
3.62665900000000	0.04119800000000	730.39868799999999	33.83798800000000	0.22206100000000	0.00000000000000	0.08928300000000	0.00000000000000	0.00000000000000	0.00000000000000	0.00000000000000	0.00000000000000	0.00000000000000	0.00000000000000	17.16503400000000	0.00000000000000	0.00000000000000	0.00000000000000	0.00000000000000	
3.62832500000000	-0.61039700000000	731.78174700000000	33.80520300000000	0.22076900000000	0.00000000000000	0.08924700000000	0.00000000000000	0.00000000000000	0.00000000000000	0.00000000000000	0.00000000000000	0.00000000000000	0.00000000000000	17.24836100000000	0.00000000000000	0.00000000000000	0.00000000000000	0.00000000000000	
3.63000000000000	-1.26603500000000	733.18506100000002	33.77398500000000	0.21946600000000	0.00000000000000	0.08921100000000	0.00000000000000	0.00000000000000	0.00000000000000	0.00000000000000	0.00000000000000	0.00000000000000	0.00000000000000	17.33192900000000	0.00000000000000	0.00000000000000	0.00000000000000	0.00000000000000	
